<svg width="70" height="16" viewBox="0 0 70 16" fill="none" xmlns="http://www.w3.org/2000/svg">
<g clip-path="url(#clip0_1050_11328)">
<path d="M0.786381 0C0.00968182 0 -0.650513 0.660194 -0.650513 1.43689V14.5631C-0.650513 15.3398 0.00968182 16 0.786381 16C1.56308 16 2.22327 15.3398 2.22327 14.5631V1.43689C2.22327 0.660194 1.56308 0 0.786381 0Z" fill="white"/>
<path d="M6.66016 2.40778C5.88346 2.40778 5.22327 3.06797 5.22327 3.84467V12.1554C5.22327 12.932 5.88346 13.5922 6.66016 13.5922C7.43686 13.5922 8.09705 12.932 8.09705 12.1554V3.84467C8.09705 3.02914 7.43686 2.40778 6.66016 2.40778Z" fill="white"/>
<path d="M12.5341 4.79614C11.7574 4.79614 11.0972 5.45634 11.0972 6.23304V9.76702C11.0972 10.5437 11.7574 11.2039 12.5341 11.2039C13.3108 11.2039 13.971 10.5437 13.971 9.76702V6.23304C13.971 5.4175 13.3108 4.79614 12.5341 4.79614Z" fill="white"/>
<path d="M18.4078 2.40778C17.6311 2.40778 16.9709 3.06797 16.9709 3.84467V12.1554C16.9709 12.932 17.6311 13.5922 18.4078 13.5922C19.1845 13.5922 19.8447 12.932 19.8447 12.1554V3.84467C19.8447 3.02914 19.1845 2.40778 18.4078 2.40778Z" fill="white"/>
<path d="M24.2816 4.79614C23.5049 4.79614 22.8447 5.45634 22.8447 6.23304V9.76702C22.8447 10.5437 23.5049 11.2039 24.2816 11.2039C25.0583 11.2039 25.7185 10.5437 25.7185 9.76702V6.23304C25.7185 5.4175 25.0583 4.79614 24.2816 4.79614Z" fill="white"/>
<path d="M30.1554 4.79614C29.3787 4.79614 28.7185 5.45634 28.7185 6.23304V9.76702C28.7185 10.5437 29.3787 11.2039 30.1554 11.2039C30.9321 11.2039 31.5923 10.5437 31.5923 9.76702V6.23304C31.5923 5.4175 30.9709 4.79614 30.1554 4.79614Z" fill="white"/>
<path d="M36.0292 2.40778C35.2525 2.40778 34.5923 3.06797 34.5923 3.84467V12.1554C34.5923 12.932 35.2525 13.5922 36.0292 13.5922C36.8059 13.5922 37.4661 12.932 37.4661 12.1554V3.84467C37.4661 3.02914 36.8059 2.40778 36.0292 2.40778Z" fill="white"/>
<path d="M41.903 0C41.1263 0 40.4661 0.660194 40.4661 1.43689V14.5631C40.4661 15.3398 41.1263 16 41.903 16C42.6797 16 43.3399 15.3398 43.3399 14.5631V1.43689C43.3399 0.660194 42.6797 0 41.903 0Z" fill="white"/>
<path d="M47.7767 2.40778C47 2.40778 46.3398 3.06797 46.3398 3.84467V12.1554C46.3398 12.932 47 13.5922 47.7767 13.5922C48.5534 13.5922 49.2136 12.932 49.2136 12.1554V3.84467C49.2136 3.02914 48.5534 2.40778 47.7767 2.40778Z" fill="white"/>
<path d="M53.6505 4.79614C52.8738 4.79614 52.2136 5.45634 52.2136 6.23304V9.76702C52.2136 10.5437 52.8738 11.2039 53.6505 11.2039C54.4272 11.2039 55.0874 10.5437 55.0874 9.76702V6.23304C55.0874 5.4175 54.4272 4.79614 53.6505 4.79614Z" fill="white"/>
<path d="M59.5243 2.40778C58.7476 2.40778 58.0874 3.06797 58.0874 3.84467V12.1554C58.0874 12.932 58.7476 13.5922 59.5243 13.5922C60.301 13.5922 60.9612 12.932 60.9612 12.1554V3.84467C60.9612 3.02914 60.301 2.40778 59.5243 2.40778Z" fill="white"/>
<path d="M65.3981 4.79614C64.6214 4.79614 63.9612 5.45634 63.9612 6.23304V9.76702C63.9612 10.5437 64.6214 11.2039 65.3981 11.2039C66.1748 11.2039 66.835 10.5437 66.835 9.76702V6.23304C66.835 5.4175 66.1748 4.79614 65.3981 4.79614Z" fill="white"/>
<path d="M71.2719 2.40778C70.4952 2.40778 69.835 3.06797 69.835 3.84467V12.1554C69.835 12.932 70.4952 13.5922 71.2719 13.5922C72.0486 13.5922 72.7087 12.932 72.7087 12.1554V3.84467C72.7087 3.02914 72.0486 2.40778 71.2719 2.40778Z" fill="white"/>
</g>
<defs>
<clipPath id="clip0_1050_11328">
<rect width="70" height="16" fill="white"/>
</clipPath>
</defs>
</svg>
