<svg width="72" height="22" viewBox="0 0 72 22" fill="none" xmlns="http://www.w3.org/2000/svg">
<g clip-path="url(#clip0_1050_11287)">
<path d="M2.53521 10.0416C1.76027 10.0938 1.1459 10.7968 1.19807 11.5718L1.43543 15.0978C1.4876 15.8727 2.19065 16.4871 2.96559 16.4349C3.74054 16.3827 4.3549 15.6797 4.30273 14.9048L4.06537 11.3788C4.01059 10.5651 3.3489 9.98684 2.53521 10.0416Z" fill="white"/>
<path d="M8.23528 7.26415C7.46034 7.31631 6.84598 8.01936 6.89815 8.79431L7.45634 17.0862C7.50851 17.8612 8.21155 18.4755 8.9865 18.4234C9.76144 18.3712 10.3758 17.6681 10.3236 16.8932L9.76544 8.60129C9.71067 7.78759 9.01023 7.21198 8.23528 7.26415Z" fill="white"/>
<path d="M13.9341 4.46727C13.1592 4.51944 12.5448 5.22248 12.597 5.99743L13.4786 19.094C13.5308 19.8689 14.2338 20.4833 15.0088 20.4311C15.7837 20.379 16.3981 19.6759 16.3459 18.901L15.4643 5.80441C15.4121 5.02946 14.7091 4.4151 13.9341 4.46727Z" fill="white"/>
<path d="M19.9564 6.47508C19.1814 6.52725 18.567 7.2303 18.6192 8.00524L19.1774 16.2972C19.2296 17.0721 19.9326 17.6865 20.7076 17.6343C21.4825 17.5821 22.0969 16.8791 22.0447 16.1041L21.4865 7.81222C21.4317 6.99853 20.7313 6.42292 19.9564 6.47508Z" fill="white"/>
<path d="M25.9773 8.46355C25.2024 8.51572 24.588 9.21876 24.6402 9.99371L24.8776 13.5197C24.9297 14.2947 25.6328 14.909 26.4077 14.8568C27.1827 14.8047 27.797 14.1016 27.7449 13.3267L27.5075 9.80069C27.4527 8.987 26.7523 8.41138 25.9773 8.46355Z" fill="white"/>
<path d="M31.6774 5.68608C30.9025 5.73825 30.2881 6.4413 30.3403 7.21624L30.8985 15.5082C30.9506 16.2831 31.6537 16.8975 32.4286 16.8453C33.2036 16.7931 33.8179 16.0901 33.7658 15.3151L33.2076 7.02322C33.1528 6.20953 32.4524 5.63392 31.6774 5.68608Z" fill="white"/>
<path d="M37.6983 7.67455C36.9234 7.72671 36.309 8.42976 36.3612 9.20471L36.5985 12.7307C36.6507 13.5057 37.3537 14.12 38.1287 14.0678C38.9036 14.0157 39.518 13.3126 39.4658 12.5377L39.2285 9.01169C39.1737 8.19799 38.4732 7.62238 37.6983 7.67455Z" fill="white"/>
<path d="M43.3985 4.89702C42.6235 4.94919 42.0092 5.65223 42.0614 6.42718L42.6195 14.7191C42.6717 15.494 43.3748 16.1084 44.1497 16.0562C44.9246 16.0041 45.539 15.301 45.4868 14.5261L44.9287 6.23416C44.8739 5.42047 44.1734 4.84485 43.3985 4.89702Z" fill="white"/>
<path d="M49.0972 2.10021C48.3223 2.15237 47.7079 2.85542 47.7601 3.63036L48.6417 16.7269C48.6939 17.5019 49.3969 18.1162 50.1719 18.0641C50.9468 18.0119 51.5612 17.3089 51.509 16.5339L50.6274 3.43734C50.5752 2.6624 49.8722 2.04804 49.0972 2.10021Z" fill="white"/>
<path d="M55.1194 4.10802C54.3445 4.16019 53.7301 4.86323 53.7823 5.63818L54.3405 13.9301C54.3927 14.705 55.0957 15.3194 55.8707 15.2672C56.6456 15.2151 57.26 14.512 57.2078 13.7371L56.6496 5.44516C56.5948 4.63147 55.8944 4.05585 55.1194 4.10802Z" fill="white"/>
<path d="M61.1404 6.09642C60.3655 6.14859 59.7511 6.85164 59.8033 7.62658L60.0407 11.1526C60.0928 11.9275 60.7959 12.5419 61.5708 12.4897C62.3458 12.4376 62.9601 11.7345 62.908 10.9596L62.6706 7.43356C62.6158 6.61987 61.9154 6.04425 61.1404 6.09642Z" fill="white"/>
<path d="M66.8405 3.31896C66.0656 3.37112 65.4512 4.07417 65.5034 4.84912L66.0616 13.141C66.1137 13.916 66.8168 14.5303 67.5917 14.4782C68.3667 14.426 68.981 13.723 68.9289 12.948L68.3707 4.6561C68.3159 3.8424 67.6155 3.26679 66.8405 3.31896Z" fill="white"/>
<path d="M72.8615 5.30742C72.0866 5.35959 71.4722 6.06263 71.5244 6.83758L71.7617 10.3636C71.8139 11.1385 72.5169 11.7529 73.2919 11.7007C74.0668 11.6486 74.6812 10.9455 74.629 10.1706L74.3917 6.64456C74.3369 5.83087 73.6365 5.25525 72.8615 5.30742Z" fill="white"/>
</g>
<defs>
<clipPath id="clip0_1050_11287">
<rect width="70" height="16" fill="white" transform="translate(0.779419 5.35284) rotate(-3.85121)"/>
</clipPath>
</defs>
</svg>
